<?xml version="1.0" encoding="utf-8" standalone="no"?>
<!DOCTYPE svg PUBLIC "-//W3C//DTD SVG 1.1//EN"
  "http://www.w3.org/Graphics/SVG/1.1/DTD/svg11.dtd">
<svg xmlns:xlink="http://www.w3.org/1999/xlink" width="576pt" height="324pt" viewBox="0 0 576 324" xmlns="http://www.w3.org/2000/svg" version="1.1">
 <metadata>
  <rdf:RDF xmlns:dc="http://purl.org/dc/elements/1.1/" xmlns:cc="http://creativecommons.org/ns#" xmlns:rdf="http://www.w3.org/1999/02/22-rdf-syntax-ns#">
   <cc:Work>
    <dc:type rdf:resource="http://purl.org/dc/dcmitype/StillImage"/>
    <dc:date>2026-09-12T23:43:59.180781</dc:date>
    <dc:format>image/svg+xml</dc:format>
    <dc:creator>
     <cc:Agent>
      <dc:title>Matplotlib v3.10.8, https://matplotlib.org/</dc:title>
     </cc:Agent>
    </dc:creator>
   </cc:Work>
  </rdf:RDF>
 </metadata>
 <defs>
  <style type="text/css">*{stroke-linejoin: round; stroke-linecap: butt}</style>
 </defs>
 <g id="figure_1">
  <g id="patch_1">
   <path d="M 0 324 
L 576 324 
L 576 0 
L 0 0 
z
" style="fill: #ffffff"/>
  </g>
  <g id="axes_1">
   <g id="patch_2">
    <path d="M 38.615865 303.520072 
L 572.99976 303.520072 
L 572.99976 18.59274 
L 38.615865 18.59274 
z
" style="fill: #ffffff"/>
   </g>
   <g id="matplotlib.axis_1">
    <g id="xtick_1">
     <g id="line2d_1">
      <path d="M 123.174902 303.520072 
L 123.174902 18.59274 
" clip-path="url(#pee57ea4bdb)" style="fill: none; stroke: #b0b0b0; stroke-opacity: 0.17; stroke-width: 0.8; stroke-linecap: square"/>
     </g>
     <g id="line2d_2">
      <defs>
       <path id="m0e57548419" d="M 0 0 
L 0 3.5 
" style="stroke: #000000; stroke-width: 0.8"/>
      </defs>
      <g>
       <use xlink:href="#m0e57548419" x="123.174902" y="303.520072" style="stroke: #000000; stroke-width: 0.8"/>
      </g>
     </g>
     <g id="text_1">
      <!-- 负荷 -->
      <g transform="translate(113.174902 318.513823) scale(0.1 -0.1)">
       <defs>
        <path id="MicrosoftYaHei-8d1f" d="M 963 3353 
L 3250 3353 
Q 3556 3659 4031 4216 
L 1819 4216 
Q 1163 3503 463 3009 
Q 325 3172 94 3384 
Q 1356 4303 2094 5334 
L 2600 5147 
Q 2406 4891 2213 4659 
L 4700 4659 
L 4700 4241 
Q 4294 3778 3881 3353 
L 5600 3353 
L 5600 641 
L 5100 641 
L 5100 2909 
L 1463 2909 
L 1463 603 
L 963 603 
L 963 3353 
z
M 188 -403 
Q 1806 -97 2550 422 
Q 3019 728 3019 1603 
L 3019 2609 
L 3525 2609 
L 3525 1716 
Q 3525 1297 3469 997 
Q 4906 334 6163 -416 
L 5831 -878 
Q 4513 -53 3325 534 
Q 2863 -391 475 -891 
Q 344 -653 188 -403 
z
" transform="scale(0.015625)"/>
        <path id="MicrosoftYaHei-8377" d="M 2175 3503 
L 6231 3503 
L 6231 3066 
L 5556 3066 
L 5556 116 
Q 5556 -716 4744 -716 
L 3856 -716 
Q 3831 -528 3744 -197 
Q 4238 -241 4619 -241 
Q 5069 -241 5069 241 
L 5069 3066 
L 2175 3066 
L 2175 3503 
z
M 2350 2422 
L 4350 2422 
L 4350 541 
L 2813 541 
L 2813 209 
L 2350 209 
L 2350 2422 
z
M 219 4728 
L 1975 4728 
L 1975 5328 
L 2463 5328 
L 2463 4728 
L 4013 4728 
L 4013 5328 
L 4500 5328 
L 4500 4728 
L 6275 4728 
L 6275 4278 
L 4500 4278 
L 4500 3828 
L 4013 3828 
L 4013 4278 
L 2463 4278 
L 2463 3859 
L 1975 3859 
L 1975 4278 
L 219 4278 
L 219 4728 
z
M 69 1653 
Q 1006 2628 1538 3847 
L 2006 3659 
Q 1759 3169 1506 2744 
L 1506 -797 
L 1019 -797 
L 1019 2006 
Q 688 1553 344 1209 
Q 225 1409 69 1653 
z
M 3888 966 
L 3888 1997 
L 2813 1997 
L 2813 966 
L 3888 966 
z
" transform="scale(0.015625)"/>
       </defs>
       <use xlink:href="#MicrosoftYaHei-8d1f"/>
       <use xlink:href="#MicrosoftYaHei-8377" transform="translate(100 0)"/>
      </g>
     </g>
    </g>
    <g id="xtick_2">
     <g id="line2d_3">
      <path d="M 305.807812 303.520072 
L 305.807812 18.59274 
" clip-path="url(#pee57ea4bdb)" style="fill: none; stroke: #b0b0b0; stroke-opacity: 0.17; stroke-width: 0.8; stroke-linecap: square"/>
     </g>
     <g id="line2d_4">
      <g>
       <use xlink:href="#m0e57548419" x="305.807812" y="303.520072" style="stroke: #000000; stroke-width: 0.8"/>
      </g>
     </g>
     <g id="text_2">
      <!-- 光伏 -->
      <g transform="translate(295.807812 318.513823) scale(0.1 -0.1)">
       <defs>
        <path id="MicrosoftYaHei-5149" d="M 169 2691 
L 2931 2691 
L 2931 5309 
L 3444 5309 
L 3444 2691 
L 6256 2691 
L 6256 2228 
L 4206 2228 
L 4206 216 
Q 4206 -22 4269 -116 
Q 4356 -241 4638 -241 
L 5256 -241 
Q 5706 -241 5750 91 
Q 5794 428 5819 984 
Q 6056 884 6344 797 
Q 6288 153 6231 -122 
Q 6175 -441 5963 -559 
Q 5763 -678 5281 -678 
L 4538 -678 
Q 4056 -678 3863 -466 
Q 3700 -284 3700 141 
L 3700 2228 
L 2491 2228 
Q 2466 931 1988 266 
Q 1469 -459 369 -841 
Q 244 -647 50 -397 
Q 1150 -16 1569 603 
Q 1966 1134 1991 2228 
L 169 2228 
L 169 2691 
z
M 4094 3397 
Q 4813 4084 5369 4828 
L 5825 4503 
Q 5200 3766 4481 3059 
L 4094 3397 
z
M 619 4528 
L 1000 4828 
Q 1631 4134 2213 3434 
L 1756 3084 
Q 1188 3866 619 4528 
z
" transform="scale(0.015625)"/>
        <path id="MicrosoftYaHei-4f0f" d="M 1844 3416 
L 3691 3416 
Q 3719 4347 3719 5316 
L 4225 5316 
Q 4219 4578 4197 3416 
L 6269 3416 
L 6269 2959 
L 4209 2959 
Q 4597 781 6313 -316 
Q 6063 -584 5888 -791 
Q 4441 331 4000 2022 
Q 3625 378 1956 -847 
Q 1806 -641 1613 -403 
Q 3503 894 3669 2959 
L 1844 2959 
L 1844 3416 
z
M 88 2328 
Q 1056 3634 1556 5284 
L 2063 5116 
Q 1753 4247 1388 3516 
L 1388 -809 
L 913 -809 
L 913 2659 
Q 616 2178 288 1772 
Q 194 2041 88 2328 
z
M 5006 5028 
Q 5519 4522 5913 4116 
Q 5719 3947 5531 3766 
Q 5106 4272 4675 4728 
L 5006 5028 
z
" transform="scale(0.015625)"/>
       </defs>
       <use xlink:href="#MicrosoftYaHei-5149"/>
       <use xlink:href="#MicrosoftYaHei-4f0f" transform="translate(100 0)"/>
      </g>
     </g>
    </g>
    <g id="xtick_3">
     <g id="line2d_5">
      <path d="M 488.440723 303.520072 
L 488.440723 18.59274 
" clip-path="url(#pee57ea4bdb)" style="fill: none; stroke: #b0b0b0; stroke-opacity: 0.17; stroke-width: 0.8; stroke-linecap: square"/>
     </g>
     <g id="line2d_6">
      <g>
       <use xlink:href="#m0e57548419" x="488.440723" y="303.520072" style="stroke: #000000; stroke-width: 0.8"/>
      </g>
     </g>
     <g id="text_3">
      <!-- 净负荷 -->
      <g transform="translate(473.440723 318.513823) scale(0.1 -0.1)">
       <defs>
        <path id="MicrosoftYaHei-51c0" d="M 2013 1278 
L 3575 1278 
L 3575 1947 
L 1706 1947 
L 1706 2397 
L 3575 2397 
L 3575 3059 
L 2125 3059 
L 2125 3297 
Q 2009 3178 1894 3066 
Q 1788 3178 1556 3416 
Q 2350 4166 3050 5353 
L 3525 5228 
Q 3400 5000 3266 4784 
L 5144 4784 
L 5144 4366 
L 4419 3497 
L 5700 3497 
L 5700 2397 
L 6269 2397 
L 6269 1947 
L 5700 1947 
L 5700 584 
L 5225 584 
L 5225 841 
L 4063 841 
L 4063 3 
Q 4063 -766 3275 -772 
Q 2863 -772 2488 -772 
Q 2444 -503 2388 -253 
Q 2781 -297 3163 -297 
Q 3575 -297 3575 116 
L 3575 841 
L 2013 841 
L 2013 1278 
z
M 4538 4353 
L 2984 4353 
Q 2669 3897 2309 3497 
L 3847 3497 
L 4538 4353 
z
M 925 2334 
Q 1150 2222 1394 2122 
Q 1063 991 713 -241 
L 206 -47 
Q 638 1159 925 2334 
z
M 4063 1278 
L 5225 1278 
L 5225 1947 
L 4063 1947 
L 4063 1278 
z
M 663 4891 
Q 1063 4203 1406 3509 
Q 1150 3372 938 3272 
Q 619 3991 256 4678 
L 663 4891 
z
M 5225 3059 
L 4063 3059 
L 4063 2397 
L 5225 2397 
L 5225 3059 
z
" transform="scale(0.015625)"/>
       </defs>
       <use xlink:href="#MicrosoftYaHei-51c0"/>
       <use xlink:href="#MicrosoftYaHei-8d1f" transform="translate(100 0)"/>
       <use xlink:href="#MicrosoftYaHei-8377" transform="translate(200 0)"/>
      </g>
     </g>
    </g>
   </g>
   <g id="matplotlib.axis_2">
    <g id="ytick_1">
     <g id="line2d_7">
      <path d="M 38.615865 303.520072 
L 572.99976 303.520072 
" clip-path="url(#pee57ea4bdb)" style="fill: none; stroke: #b0b0b0; stroke-opacity: 0.17; stroke-width: 0.8; stroke-linecap: square"/>
     </g>
     <g id="line2d_8">
      <defs>
       <path id="m806f36a41c" d="M 0 0 
L -3.5 0 
" style="stroke: #000000; stroke-width: 0.8"/>
      </defs>
      <g>
       <use xlink:href="#m806f36a41c" x="38.615865" y="303.520072" style="stroke: #000000; stroke-width: 0.8"/>
      </g>
     </g>
     <g id="text_4">
      <!-- 0.0 -->
      <g transform="translate(17.479928 307.516948) scale(0.1 -0.1)">
       <defs>
        <path id="MicrosoftYaHei-30" d="M 284 2325 
Q 284 3606 709 4264 
Q 1134 4922 1941 4922 
Q 3478 4922 3478 2441 
Q 3478 1216 3045 567 
Q 2613 -81 1831 -81 
Q 1094 -81 689 534 
Q 284 1150 284 2325 
z
M 909 2353 
Q 909 425 1888 425 
Q 2850 425 2850 2384 
Q 2850 4413 1906 4413 
Q 909 4413 909 2353 
z
" transform="scale(0.015625)"/>
        <path id="MicrosoftYaHei-2e" d="M 372 322 
Q 372 491 487 606 
Q 603 722 775 722 
Q 950 722 1065 605 
Q 1181 488 1181 322 
Q 1181 159 1065 42 
Q 950 -75 772 -75 
Q 600 -75 486 42 
Q 372 159 372 322 
z
" transform="scale(0.015625)"/>
       </defs>
       <use xlink:href="#MicrosoftYaHei-30"/>
       <use xlink:href="#MicrosoftYaHei-2e" transform="translate(58.642578 0)"/>
       <use xlink:href="#MicrosoftYaHei-30" transform="translate(82.714844 0)"/>
      </g>
     </g>
    </g>
    <g id="ytick_2">
     <g id="line2d_9">
      <path d="M 38.615865 249.2482 
L 572.99976 249.2482 
" clip-path="url(#pee57ea4bdb)" style="fill: none; stroke: #b0b0b0; stroke-opacity: 0.17; stroke-width: 0.8; stroke-linecap: square"/>
     </g>
     <g id="line2d_10">
      <g>
       <use xlink:href="#m806f36a41c" x="38.615865" y="249.2482" style="stroke: #000000; stroke-width: 0.8"/>
      </g>
     </g>
     <g id="text_5">
      <!-- 0.2 -->
      <g transform="translate(17.479928 253.245075) scale(0.1 -0.1)">
       <defs>
        <path id="MicrosoftYaHei-32" d="M 2666 3572 
Q 2666 3963 2419 4186 
Q 2172 4409 1747 4409 
Q 1447 4409 1140 4256 
Q 834 4103 569 3819 
L 569 4413 
Q 806 4659 1107 4790 
Q 1409 4922 1816 4922 
Q 2472 4922 2872 4570 
Q 3272 4219 3272 3619 
Q 3272 3084 3026 2693 
Q 2781 2303 2188 1894 
Q 1581 1475 1376 1294 
Q 1172 1113 1090 947 
Q 1009 781 1009 544 
L 3416 544 
L 3416 0 
L 372 0 
L 372 241 
Q 372 659 486 951 
Q 600 1244 862 1520 
Q 1125 1797 1681 2184 
Q 2250 2584 2458 2886 
Q 2666 3188 2666 3572 
z
" transform="scale(0.015625)"/>
       </defs>
       <use xlink:href="#MicrosoftYaHei-30"/>
       <use xlink:href="#MicrosoftYaHei-2e" transform="translate(58.642578 0)"/>
       <use xlink:href="#MicrosoftYaHei-32" transform="translate(82.714844 0)"/>
      </g>
     </g>
    </g>
    <g id="ytick_3">
     <g id="line2d_11">
      <path d="M 38.615865 194.976327 
L 572.99976 194.976327 
" clip-path="url(#pee57ea4bdb)" style="fill: none; stroke: #b0b0b0; stroke-opacity: 0.17; stroke-width: 0.8; stroke-linecap: square"/>
     </g>
     <g id="line2d_12">
      <g>
       <use xlink:href="#m806f36a41c" x="38.615865" y="194.976327" style="stroke: #000000; stroke-width: 0.8"/>
      </g>
     </g>
     <g id="text_6">
      <!-- 0.4 -->
      <g transform="translate(17.479928 198.973202) scale(0.1 -0.1)">
       <defs>
        <path id="MicrosoftYaHei-34" d="M 2906 4841 
L 2906 1644 
L 3631 1644 
L 3631 1138 
L 2906 1138 
L 2906 0 
L 2313 0 
L 2313 1138 
L 53 1138 
L 53 1616 
Q 656 2294 1265 3178 
Q 1875 4063 2272 4841 
L 2906 4841 
z
M 741 1644 
L 2313 1644 
L 2313 3950 
Q 1988 3366 1616 2817 
Q 1244 2269 741 1644 
z
" transform="scale(0.015625)"/>
       </defs>
       <use xlink:href="#MicrosoftYaHei-30"/>
       <use xlink:href="#MicrosoftYaHei-2e" transform="translate(58.642578 0)"/>
       <use xlink:href="#MicrosoftYaHei-34" transform="translate(82.714844 0)"/>
      </g>
     </g>
    </g>
    <g id="ytick_4">
     <g id="line2d_13">
      <path d="M 38.615865 140.704454 
L 572.99976 140.704454 
" clip-path="url(#pee57ea4bdb)" style="fill: none; stroke: #b0b0b0; stroke-opacity: 0.17; stroke-width: 0.8; stroke-linecap: square"/>
     </g>
     <g id="line2d_14">
      <g>
       <use xlink:href="#m806f36a41c" x="38.615865" y="140.704454" style="stroke: #000000; stroke-width: 0.8"/>
      </g>
     </g>
     <g id="text_7">
      <!-- 0.6 -->
      <g transform="translate(17.479928 144.701329) scale(0.1 -0.1)">
       <defs>
        <path id="MicrosoftYaHei-36" d="M 3181 4219 
Q 2803 4413 2391 4413 
Q 1763 4413 1381 3866 
Q 1000 3319 994 2372 
L 1009 2372 
Q 1353 3038 2106 3038 
Q 2734 3038 3109 2628 
Q 3484 2219 3484 1541 
Q 3484 831 3051 375 
Q 2619 -81 1947 -81 
Q 1209 -81 789 495 
Q 369 1072 369 2131 
Q 369 3413 920 4167 
Q 1472 4922 2372 4922 
Q 2888 4922 3181 4781 
L 3181 4219 
z
M 1031 1584 
Q 1031 1106 1286 765 
Q 1541 425 1963 425 
Q 2363 425 2613 719 
Q 2863 1013 2863 1475 
Q 2863 1975 2627 2253 
Q 2391 2531 1956 2531 
Q 1544 2531 1287 2250 
Q 1031 1969 1031 1584 
z
" transform="scale(0.015625)"/>
       </defs>
       <use xlink:href="#MicrosoftYaHei-30"/>
       <use xlink:href="#MicrosoftYaHei-2e" transform="translate(58.642578 0)"/>
       <use xlink:href="#MicrosoftYaHei-36" transform="translate(82.714844 0)"/>
      </g>
     </g>
    </g>
    <g id="ytick_5">
     <g id="line2d_15">
      <path d="M 38.615865 86.432581 
L 572.99976 86.432581 
" clip-path="url(#pee57ea4bdb)" style="fill: none; stroke: #b0b0b0; stroke-opacity: 0.17; stroke-width: 0.8; stroke-linecap: square"/>
     </g>
     <g id="line2d_16">
      <g>
       <use xlink:href="#m806f36a41c" x="38.615865" y="86.432581" style="stroke: #000000; stroke-width: 0.8"/>
      </g>
     </g>
     <g id="text_8">
      <!-- 0.8 -->
      <g transform="translate(17.479928 90.429456) scale(0.1 -0.1)">
       <defs>
        <path id="MicrosoftYaHei-38" d="M 306 1350 
Q 306 1769 556 2122 
Q 806 2475 1200 2625 
Q 884 2803 700 3081 
Q 516 3359 516 3684 
Q 516 4028 692 4312 
Q 869 4597 1183 4759 
Q 1497 4922 1875 4922 
Q 2256 4922 2572 4761 
Q 2888 4600 3063 4315 
Q 3238 4031 3238 3684 
Q 3238 3366 3058 3086 
Q 2878 2806 2559 2625 
Q 2953 2472 3200 2119 
Q 3447 1766 3447 1350 
Q 3447 938 3250 611 
Q 3053 284 2690 103 
Q 2328 -78 1875 -78 
Q 1425 -78 1065 103 
Q 706 284 506 612 
Q 306 941 306 1350 
z
M 906 1378 
Q 906 947 1172 687 
Q 1438 428 1878 428 
Q 2309 428 2582 692 
Q 2856 956 2856 1378 
Q 2856 1778 2579 2051 
Q 2303 2325 1878 2325 
Q 1456 2325 1181 2058 
Q 906 1791 906 1378 
z
M 1081 3634 
Q 1081 3309 1312 3076 
Q 1544 2844 1878 2844 
Q 2206 2844 2445 3078 
Q 2684 3313 2684 3634 
Q 2684 3963 2454 4191 
Q 2225 4419 1878 4419 
Q 1534 4419 1307 4195 
Q 1081 3972 1081 3634 
z
" transform="scale(0.015625)"/>
       </defs>
       <use xlink:href="#MicrosoftYaHei-30"/>
       <use xlink:href="#MicrosoftYaHei-2e" transform="translate(58.642578 0)"/>
       <use xlink:href="#MicrosoftYaHei-38" transform="translate(82.714844 0)"/>
      </g>
     </g>
    </g>
    <g id="ytick_6">
     <g id="line2d_17">
      <path d="M 38.615865 32.160708 
L 572.99976 32.160708 
" clip-path="url(#pee57ea4bdb)" style="fill: none; stroke: #b0b0b0; stroke-opacity: 0.17; stroke-width: 0.8; stroke-linecap: square"/>
     </g>
     <g id="line2d_18">
      <g>
       <use xlink:href="#m806f36a41c" x="38.615865" y="32.160708" style="stroke: #000000; stroke-width: 0.8"/>
      </g>
     </g>
     <g id="text_9">
      <!-- 1.0 -->
      <g transform="translate(17.479928 36.157583) scale(0.1 -0.1)">
       <defs>
        <path id="MicrosoftYaHei-31" d="M 1781 0 
L 1781 4141 
Q 1638 3997 1295 3819 
Q 953 3641 663 3569 
L 663 4169 
Q 1047 4275 1484 4508 
Q 1922 4741 2156 4947 
L 2388 4947 
L 2388 0 
L 1781 0 
z
" transform="scale(0.015625)"/>
       </defs>
       <use xlink:href="#MicrosoftYaHei-31"/>
       <use xlink:href="#MicrosoftYaHei-2e" transform="translate(58.642578 0)"/>
       <use xlink:href="#MicrosoftYaHei-30" transform="translate(82.714844 0)"/>
      </g>
     </g>
    </g>
    <g id="text_10">
     <!-- 差分方差 / 同区间原始方差 -->
     <g transform="translate(10.99399 221.151719) rotate(-90) scale(0.1 -0.1)">
      <defs>
       <path id="MicrosoftYaHei-5dee" d="M 1094 -172 
L 3419 -172 
L 3419 891 
L 1813 891 
L 1813 1088 
Q 1200 394 331 -197 
Q 206 3 31 247 
Q 1213 1028 1859 1984 
L 200 1984 
L 200 2409 
L 2119 2409 
Q 2275 2694 2409 3028 
L 638 3028 
L 638 3447 
L 2569 3447 
Q 2666 3728 2750 4041 
L 488 4041 
L 488 4466 
L 2075 4466 
Q 1813 4797 1513 5122 
L 1869 5397 
Q 2231 5047 2563 4672 
L 2278 4466 
L 4219 4466 
L 3975 4684 
Q 4344 5047 4631 5403 
L 5056 5122 
Q 4738 4772 4413 4466 
L 6050 4466 
L 6050 4041 
L 3291 4041 
Q 3206 3731 3109 3447 
L 5813 3447 
L 5813 3028 
L 2963 3028 
Q 2838 2700 2697 2409 
L 6294 2409 
L 6294 1984 
L 2469 1984 
Q 2259 1634 1997 1309 
L 5613 1309 
L 5613 891 
L 3925 891 
L 3925 -172 
L 6213 -172 
L 6213 -597 
L 1094 -597 
L 1094 -172 
z
" transform="scale(0.015625)"/>
       <path id="MicrosoftYaHei-5206" d="M 900 2559 
L 5056 2559 
Q 5025 1497 4963 484 
Q 4888 -684 3856 -678 
Q 3350 -684 2788 -647 
Q 2750 -384 2700 -116 
Q 3181 -184 3775 -191 
Q 4400 -203 4463 541 
Q 4513 1216 4538 2097 
L 2616 2097 
Q 2541 1053 2181 416 
Q 1706 -422 588 -878 
Q 425 -666 231 -459 
Q 1269 -72 1725 666 
Q 2053 1225 2103 2097 
L 900 2097 
L 900 2559 
z
M 3488 5159 
L 3938 5353 
Q 4625 3678 6350 2847 
Q 6069 2553 5944 2372 
Q 4225 3366 3488 5159 
z
M 50 2766 
Q 1338 3678 2250 5253 
L 2694 5009 
Q 1744 3347 413 2341 
Q 281 2534 50 2766 
z
" transform="scale(0.015625)"/>
       <path id="MicrosoftYaHei-65b9" d="M 194 4241 
L 3194 4241 
Q 2878 4841 2700 5116 
L 3188 5347 
Q 3363 5078 3713 4472 
L 3256 4241 
L 6219 4241 
L 6219 3766 
L 2428 3766 
Q 2406 3197 2381 2797 
L 5400 2797 
Q 5325 1441 5238 441 
Q 5169 -691 4138 -691 
Q 3663 -691 2869 -641 
Q 2838 -403 2775 -66 
Q 3569 -172 4063 -172 
Q 4638 -172 4706 509 
Q 4781 1253 4838 2328 
L 2347 2328 
Q 2172 266 438 -872 
Q 269 -672 56 -447 
Q 1706 641 1825 2466 
Q 1869 2959 1897 3766 
L 194 3766 
L 194 4241 
z
" transform="scale(0.015625)"/>
       <path id="MicrosoftYaHei-20" transform="scale(0.015625)"/>
       <path id="MicrosoftYaHei-2f" d="M 2791 4841 
L 469 -803 
L -103 -803 
L 2219 4841 
L 2791 4841 
z
" transform="scale(0.015625)"/>
       <path id="MicrosoftYaHei-540c" d="M 1013 -772 
L 531 -772 
L 531 4959 
L 5856 4959 
L 5856 -47 
Q 5856 -741 5125 -741 
Q 4669 -741 4088 -716 
Q 4056 -497 4000 -216 
Q 4619 -272 5025 -272 
Q 5375 -272 5375 78 
L 5375 4497 
L 1013 4497 
L 1013 -772 
z
M 1875 2566 
L 4506 2566 
L 4506 597 
L 2338 597 
L 2338 272 
L 1875 272 
L 1875 2566 
z
M 4044 2116 
L 2338 2116 
L 2338 1047 
L 4044 1047 
L 4044 2116 
z
M 1363 3734 
L 5025 3734 
L 5025 3284 
L 1363 3284 
L 1363 3734 
z
" transform="scale(0.015625)"/>
       <path id="MicrosoftYaHei-533a" d="M 600 4872 
L 5975 4872 
L 5975 4384 
L 1131 4384 
L 1131 22 
L 6075 22 
L 6075 -453 
L 600 -453 
L 600 4872 
z
M 1613 3697 
L 1963 4028 
Q 2744 3384 3597 2616 
Q 4250 3322 4850 4153 
L 5306 3847 
Q 4650 2997 3975 2272 
Q 4753 1563 5588 753 
L 5156 316 
Q 4400 1106 3600 1878 
Q 2697 963 1763 266 
Q 1613 459 1363 672 
Q 2344 1341 3228 2231 
Q 2444 2972 1613 3697 
z
" transform="scale(0.015625)"/>
       <path id="MicrosoftYaHei-95f4" d="M 1863 3647 
L 4513 3647 
L 4513 553 
L 2313 553 
L 2313 166 
L 1863 166 
L 1863 3647 
z
M 2388 4453 
L 2388 4922 
L 6013 4922 
L 6013 -28 
Q 6013 -816 5119 -816 
Q 4756 -816 4169 -803 
Q 4144 -616 4069 -297 
Q 4588 -334 5056 -334 
Q 5525 -334 5525 122 
L 5525 4453 
L 2388 4453 
z
M 419 4084 
L 906 4084 
L 906 -816 
L 419 -816 
L 419 4084 
z
M 2313 997 
L 4063 997 
L 4063 1884 
L 2313 1884 
L 2313 997 
z
M 4063 3203 
L 2313 3203 
L 2313 2328 
L 4063 2328 
L 4063 3203 
z
M 744 5003 
L 1100 5322 
Q 1575 4872 1981 4447 
L 1575 4091 
Q 1194 4541 744 5003 
z
" transform="scale(0.015625)"/>
       <path id="MicrosoftYaHei-539f" d="M 1950 3853 
L 3081 3853 
Q 3200 4153 3306 4472 
L 1256 4472 
L 1256 2772 
Q 1256 1322 1088 634 
Q 919 -103 394 -866 
Q 238 -653 44 -434 
Q 475 209 613 834 
Q 756 1428 756 2659 
L 756 4928 
L 6219 4928 
L 6219 4472 
L 3856 4472 
Q 3716 4134 3584 3853 
L 5719 3853 
L 5719 1291 
L 5250 1291 
L 5250 1416 
L 4094 1416 
L 4094 16 
Q 4094 -772 3381 -766 
Q 3163 -766 2594 -753 
Q 2569 -516 2513 -209 
Q 3000 -272 3281 -272 
Q 3594 -272 3594 91 
L 3594 1416 
L 2419 1416 
L 2419 1291 
L 1950 1291 
L 1950 3853 
z
M 2419 1834 
L 5250 1834 
L 5250 2434 
L 2419 2434 
L 2419 1834 
z
M 5250 3434 
L 2419 3434 
L 2419 2841 
L 5250 2841 
L 5250 3434 
z
M 2488 1172 
L 2919 891 
Q 2313 -9 1613 -703 
Q 1450 -566 1206 -397 
Q 1838 184 2488 1172 
z
M 4925 1159 
Q 5738 391 6313 -266 
L 5894 -641 
Q 5294 122 4556 859 
L 4925 1159 
z
" transform="scale(0.015625)"/>
       <path id="MicrosoftYaHei-59cb" d="M 2838 1984 
L 5850 1984 
L 5850 -828 
L 5375 -828 
L 5375 -391 
L 3313 -391 
L 3313 -834 
L 2838 -834 
L 2838 1984 
z
M 2638 222 
L 2269 -191 
Q 1928 156 1588 484 
Q 1125 -184 381 -778 
Q 250 -584 94 -372 
Q 809 156 1244 809 
Q 797 1228 350 1616 
Q 572 2456 753 3497 
L 113 3497 
L 113 3966 
L 834 3966 
Q 934 4597 1025 5297 
L 1531 5222 
Q 1428 4544 1325 3966 
L 2488 3966 
L 2488 3503 
Q 2341 1828 1863 931 
Q 2288 559 2638 222 
z
M 5225 4484 
Q 5863 3478 6325 2522 
L 5831 2291 
Q 5700 2591 5559 2884 
Q 4572 2825 3200 2697 
Q 3025 2678 2756 2591 
L 2525 3041 
Q 2744 3172 2900 3391 
Q 3406 4147 3925 5334 
L 4450 5166 
Q 3881 4078 3319 3191 
Q 4569 3269 5350 3306 
Q 5097 3803 4819 4284 
L 5225 4484 
z
M 5375 1547 
L 3313 1547 
L 3313 34 
L 5375 34 
L 5375 1547 
z
M 2006 3497 
L 1241 3497 
Q 1044 2463 850 1778 
Q 1191 1503 1497 1247 
Q 1922 2119 2006 3497 
z
" transform="scale(0.015625)"/>
      </defs>
      <use xlink:href="#MicrosoftYaHei-5dee"/>
      <use xlink:href="#MicrosoftYaHei-5206" transform="translate(100 0)"/>
      <use xlink:href="#MicrosoftYaHei-65b9" transform="translate(200 0)"/>
      <use xlink:href="#MicrosoftYaHei-5dee" transform="translate(300 0)"/>
      <use xlink:href="#MicrosoftYaHei-20" transform="translate(400 0)"/>
      <use xlink:href="#MicrosoftYaHei-2f" transform="translate(429.589844 0)"/>
      <use xlink:href="#MicrosoftYaHei-20" transform="translate(472.314453 0)"/>
      <use xlink:href="#MicrosoftYaHei-540c" transform="translate(501.904297 0)"/>
      <use xlink:href="#MicrosoftYaHei-533a" transform="translate(601.904297 0)"/>
      <use xlink:href="#MicrosoftYaHei-95f4" transform="translate(701.904297 0)"/>
      <use xlink:href="#MicrosoftYaHei-539f" transform="translate(801.904297 0)"/>
      <use xlink:href="#MicrosoftYaHei-59cb" transform="translate(901.904297 0)"/>
      <use xlink:href="#MicrosoftYaHei-65b9" transform="translate(1001.904297 0)"/>
      <use xlink:href="#MicrosoftYaHei-5dee" transform="translate(1101.904297 0)"/>
     </g>
    </g>
   </g>
   <g id="patch_3">
    <path d="M 62.906042 303.520072 
L 121.348573 303.520072 
L 121.348573 129.396419 
L 62.906042 129.396419 
z
" clip-path="url(#pee57ea4bdb)" style="fill: #0072b2"/>
   </g>
   <g id="patch_4">
    <path d="M 245.538952 303.520072 
L 303.981483 303.520072 
L 303.981483 299.348703 
L 245.538952 299.348703 
z
" clip-path="url(#pee57ea4bdb)" style="fill: #0072b2"/>
   </g>
   <g id="patch_5">
    <path d="M 428.171862 303.520072 
L 486.614394 303.520072 
L 486.614394 238.726196 
L 428.171862 238.726196 
z
" clip-path="url(#pee57ea4bdb)" style="fill: #0072b2"/>
   </g>
   <g id="patch_6">
    <path d="M 125.001231 303.520072 
L 183.443763 303.520072 
L 183.443763 295.638473 
L 125.001231 295.638473 
z
" clip-path="url(#pee57ea4bdb)" style="fill: #009e88"/>
   </g>
   <g id="patch_7">
    <path d="M 307.634142 303.520072 
L 366.076673 303.520072 
L 366.076673 298.277296 
L 307.634142 298.277296 
z
" clip-path="url(#pee57ea4bdb)" style="fill: #009e88"/>
   </g>
   <g id="patch_8">
    <path d="M 490.267052 303.520072 
L 548.709583 303.520072 
L 548.709583 293.145728 
L 490.267052 293.145728 
z
" clip-path="url(#pee57ea4bdb)" style="fill: #009e88"/>
   </g>
   <g id="line2d_19">
    <path d="M 38.615865 32.160708 
L 572.99976 32.160708 
" clip-path="url(#pee57ea4bdb)" style="fill: none; stroke-dasharray: 3.7,1.6; stroke-dashoffset: 0; stroke: #7b8792"/>
   </g>
   <g id="patch_9">
    <path d="M 38.615865 303.520072 
L 38.615865 18.59274 
" style="fill: none; stroke: #000000; stroke-width: 0.8; stroke-linejoin: miter; stroke-linecap: square"/>
   </g>
   <g id="patch_10">
    <path d="M 38.615865 303.520072 
L 572.99976 303.520072 
" style="fill: none; stroke: #000000; stroke-width: 0.8; stroke-linejoin: miter; stroke-linecap: square"/>
   </g>
   <g id="text_11">
    <!-- 0.642 -->
    <g transform="translate(80.48848 124.159075) scale(0.09 -0.09)">
     <use xlink:href="#MicrosoftYaHei-30"/>
     <use xlink:href="#MicrosoftYaHei-2e" transform="translate(58.642578 0)"/>
     <use xlink:href="#MicrosoftYaHei-36" transform="translate(82.714844 0)"/>
     <use xlink:href="#MicrosoftYaHei-34" transform="translate(141.357422 0)"/>
     <use xlink:href="#MicrosoftYaHei-32" transform="translate(200 0)"/>
    </g>
   </g>
   <g id="text_12">
    <!-- 0.015 -->
    <g transform="translate(263.12139 294.111359) scale(0.09 -0.09)">
     <defs>
      <path id="MicrosoftYaHei-35" d="M 3294 1494 
Q 3294 784 2823 350 
Q 2353 -84 1559 -84 
Q 878 -84 544 119 
L 544 744 
Q 1034 425 1544 425 
Q 2050 425 2361 704 
Q 2672 984 2672 1447 
Q 2672 1909 2348 2167 
Q 2025 2425 1434 2425 
Q 978 2425 613 2384 
L 791 4841 
L 3053 4841 
L 3053 4303 
L 1306 4303 
L 1206 2931 
L 1647 2950 
Q 2416 2950 2855 2567 
Q 3294 2184 3294 1494 
z
" transform="scale(0.015625)"/>
     </defs>
     <use xlink:href="#MicrosoftYaHei-30"/>
     <use xlink:href="#MicrosoftYaHei-2e" transform="translate(58.642578 0)"/>
     <use xlink:href="#MicrosoftYaHei-30" transform="translate(82.714844 0)"/>
     <use xlink:href="#MicrosoftYaHei-31" transform="translate(141.357422 0)"/>
     <use xlink:href="#MicrosoftYaHei-35" transform="translate(200 0)"/>
    </g>
   </g>
   <g id="text_13">
    <!-- 0.239 -->
    <g transform="translate(445.7543 233.488852) scale(0.09 -0.09)">
     <defs>
      <path id="MicrosoftYaHei-33" d="M 447 809 
Q 944 425 1569 425 
Q 2069 425 2361 670 
Q 2653 916 2653 1328 
Q 2653 2247 1338 2247 
L 934 2247 
L 934 2753 
L 1319 2753 
Q 2484 2753 2484 3616 
Q 2484 4413 1594 4413 
Q 1084 4413 634 4069 
L 634 4647 
Q 1109 4922 1744 4922 
Q 2363 4922 2738 4598 
Q 3113 4275 3113 3759 
Q 3113 2809 2144 2538 
L 2144 2525 
Q 2669 2469 2973 2155 
Q 3278 1841 3278 1372 
Q 3278 719 2808 319 
Q 2338 -81 1556 -81 
Q 869 -81 447 175 
L 447 809 
z
" transform="scale(0.015625)"/>
      <path id="MicrosoftYaHei-39" d="M 578 656 
Q 978 425 1441 425 
Q 2091 425 2448 937 
Q 2806 1450 2806 2394 
Q 2800 2388 2794 2394 
Q 2475 1788 1722 1788 
Q 1113 1788 713 2206 
Q 313 2625 313 3294 
Q 313 4006 750 4464 
Q 1188 4922 1884 4922 
Q 2606 4922 3012 4355 
Q 3419 3788 3419 2703 
Q 3419 1363 2894 641 
Q 2369 -81 1441 -81 
Q 931 -81 578 84 
L 578 656 
z
M 931 3372 
Q 931 2884 1181 2598 
Q 1431 2313 1872 2313 
Q 2253 2313 2512 2573 
Q 2772 2834 2772 3206 
Q 2772 3728 2514 4070 
Q 2256 4413 1834 4413 
Q 1444 4413 1187 4116 
Q 931 3819 931 3372 
z
" transform="scale(0.015625)"/>
     </defs>
     <use xlink:href="#MicrosoftYaHei-30"/>
     <use xlink:href="#MicrosoftYaHei-2e" transform="translate(58.642578 0)"/>
     <use xlink:href="#MicrosoftYaHei-32" transform="translate(82.714844 0)"/>
     <use xlink:href="#MicrosoftYaHei-33" transform="translate(141.357422 0)"/>
     <use xlink:href="#MicrosoftYaHei-39" transform="translate(200 0)"/>
    </g>
   </g>
   <g id="text_14">
    <!-- 0.029 -->
    <g transform="translate(142.583669 290.401129) scale(0.09 -0.09)">
     <use xlink:href="#MicrosoftYaHei-30"/>
     <use xlink:href="#MicrosoftYaHei-2e" transform="translate(58.642578 0)"/>
     <use xlink:href="#MicrosoftYaHei-30" transform="translate(82.714844 0)"/>
     <use xlink:href="#MicrosoftYaHei-32" transform="translate(141.357422 0)"/>
     <use xlink:href="#MicrosoftYaHei-39" transform="translate(200 0)"/>
    </g>
   </g>
   <g id="text_15">
    <!-- 0.019 -->
    <g transform="translate(325.216579 293.039952) scale(0.09 -0.09)">
     <use xlink:href="#MicrosoftYaHei-30"/>
     <use xlink:href="#MicrosoftYaHei-2e" transform="translate(58.642578 0)"/>
     <use xlink:href="#MicrosoftYaHei-30" transform="translate(82.714844 0)"/>
     <use xlink:href="#MicrosoftYaHei-31" transform="translate(141.357422 0)"/>
     <use xlink:href="#MicrosoftYaHei-39" transform="translate(200 0)"/>
    </g>
   </g>
   <g id="text_16">
    <!-- 0.038 -->
    <g transform="translate(507.849489 287.908384) scale(0.09 -0.09)">
     <use xlink:href="#MicrosoftYaHei-30"/>
     <use xlink:href="#MicrosoftYaHei-2e" transform="translate(58.642578 0)"/>
     <use xlink:href="#MicrosoftYaHei-30" transform="translate(82.714844 0)"/>
     <use xlink:href="#MicrosoftYaHei-33" transform="translate(141.357422 0)"/>
     <use xlink:href="#MicrosoftYaHei-38" transform="translate(200 0)"/>
    </g>
   </g>
   <g id="text_17">
    <!-- 季节差分对波动的压缩程度 · 事后诊断 -->
    <g transform="translate(204.811875 12.59274) scale(0.12 -0.12)">
     <defs>
      <path id="MicrosoftYaHei-5b63" d="M 181 3934 
L 2963 3934 
L 2963 4572 
Q 1816 4538 713 4516 
Q 688 4716 613 4953 
Q 3300 4991 5606 5128 
L 5688 4672 
Q 4544 4625 3438 4588 
L 3438 3934 
L 6163 3934 
L 6163 3509 
L 3991 3509 
Q 4913 2850 6344 2528 
Q 6194 2316 6056 2066 
Q 4394 2572 3438 3478 
L 3438 2491 
L 2963 2491 
L 2963 3488 
Q 2063 2641 331 2003 
Q 225 2216 38 2428 
Q 1531 2897 2388 3509 
L 181 3509 
L 181 3934 
z
M 113 1053 
L 3106 1053 
L 3106 1328 
L 4119 1872 
L 1375 1872 
L 1375 2297 
L 4900 2297 
L 4900 1866 
L 3581 1153 
L 3581 1053 
L 6294 1053 
L 6294 616 
L 3581 616 
L 3581 53 
Q 3581 -416 3413 -572 
Q 3256 -753 2819 -753 
Q 2363 -753 1825 -741 
Q 1806 -497 1750 -197 
Q 2256 -253 2750 -259 
Q 3106 -266 3106 97 
L 3106 616 
L 113 616 
L 113 1053 
z
" transform="scale(0.015625)"/>
      <path id="MicrosoftYaHei-8282" d="M 438 2928 
L 5600 2928 
Q 5538 1622 5475 922 
Q 5406 3 4400 3 
Q 3806 3 3425 41 
Q 3388 341 3325 584 
Q 3869 497 4338 497 
Q 4944 497 4981 1084 
Q 5038 1553 5075 2472 
L 2569 2472 
L 2569 -834 
L 2050 -834 
L 2050 2472 
L 438 2472 
L 438 2928 
z
M 125 4478 
L 1856 4478 
L 1856 5303 
L 2356 5303 
L 2356 4478 
L 4031 4478 
L 4031 5303 
L 4531 5303 
L 4531 4478 
L 6263 4478 
L 6263 4022 
L 4531 4022 
L 4531 3322 
L 4031 3322 
L 4031 4022 
L 2356 4022 
L 2356 3328 
L 1856 3328 
L 1856 4022 
L 125 4022 
L 125 4478 
z
" transform="scale(0.015625)"/>
      <path id="MicrosoftYaHei-5bf9" d="M 694 3691 
Q 1234 2909 1741 2166 
Q 2113 3081 2213 4147 
L 250 4147 
L 250 4622 
L 2725 4622 
L 2725 4166 
Q 2553 2809 2059 1700 
Q 2569 953 3044 247 
L 2594 -53 
Q 2203 563 1803 1181 
Q 1247 163 388 -622 
Q 263 -428 81 -166 
Q 975 638 1500 1647 
Q 919 2538 319 3434 
L 694 3691 
z
M 2975 3941 
L 5056 3941 
L 5056 5278 
L 5563 5278 
L 5563 3941 
L 6325 3941 
L 6325 3466 
L 5563 3466 
L 5563 191 
Q 5563 -716 4669 -716 
Q 4388 -716 3744 -709 
Q 3713 -478 3644 -147 
Q 4263 -197 4588 -197 
Q 5056 -197 5056 278 
L 5056 3466 
L 2975 3466 
L 2975 3941 
z
M 3088 2684 
L 3494 2928 
Q 4000 2184 4388 1484 
L 3919 1216 
Q 3550 1922 3088 2684 
z
" transform="scale(0.015625)"/>
      <path id="MicrosoftYaHei-6ce2" d="M 2094 4453 
L 3919 4453 
L 3919 5316 
L 4406 5316 
L 4406 4453 
L 6169 4453 
L 6106 3253 
Q 5900 3278 5638 3284 
L 5688 4016 
L 4406 4016 
L 4406 2853 
L 5788 2853 
L 5788 2434 
Q 5463 1309 4653 481 
Q 5334 -50 6356 -347 
Q 6063 -641 5931 -816 
Q 4944 -444 4272 134 
Q 3550 -466 2525 -884 
Q 2406 -691 2181 -459 
Q 3213 -75 3919 478 
Q 3184 1281 2950 2416 
L 2581 2416 
Q 2588 316 1513 -847 
Q 1344 -622 1175 -447 
Q 2094 541 2094 2353 
L 2094 4453 
z
M 5269 2416 
L 3416 2416 
Q 3647 1469 4288 806 
Q 4988 1497 5269 2416 
z
M 2581 2853 
L 3919 2853 
L 3919 4016 
L 2581 4016 
L 2581 2853 
z
M 256 -609 
Q 619 466 900 1809 
Q 1175 1691 1406 1616 
Q 1019 97 806 -778 
L 256 -609 
z
M 325 4878 
L 650 5209 
Q 1063 4897 1725 4328 
Q 1513 4122 1350 3959 
Q 706 4566 325 4878 
z
M 81 3247 
L 400 3603 
Q 938 3234 1475 2803 
Q 1269 2584 1113 2397 
Q 500 2941 81 3247 
z
" transform="scale(0.015625)"/>
      <path id="MicrosoftYaHei-52a8" d="M 2975 4022 
L 3906 4022 
Q 3916 4650 3913 5309 
L 4425 5309 
Q 4422 4656 4409 4022 
L 6094 4022 
Q 6050 1659 5969 216 
Q 5900 -666 5150 -678 
Q 4763 -678 4306 -659 
Q 4263 -397 4206 -109 
Q 4638 -166 4994 -172 
Q 5456 -172 5475 347 
Q 5569 1897 5588 3547 
L 4400 3547 
Q 4394 3278 4388 3016 
Q 4356 553 2900 -872 
Q 2725 -659 2525 -447 
Q 3831 716 3888 3028 
Q 3894 3284 3900 3547 
L 2975 3547 
L 2975 4022 
z
M 2338 1866 
Q 2731 1016 3063 178 
Q 2788 59 2594 -28 
Q 2550 91 2506 209 
Q 1316 97 338 -16 
L 119 491 
Q 394 647 563 997 
Q 869 1613 1200 2559 
L 144 2559 
L 144 3022 
L 3163 3022 
L 3163 2559 
L 1725 2559 
Q 1191 1228 800 491 
Q 1519 544 2347 631 
Q 2138 1163 1906 1672 
L 2338 1866 
z
M 406 4778 
L 2913 4778 
L 2913 4316 
L 406 4316 
L 406 4778 
z
" transform="scale(0.015625)"/>
      <path id="MicrosoftYaHei-7684" d="M 356 4284 
L 988 4284 
Q 1219 4853 1369 5322 
L 1894 5172 
Q 1697 4694 1513 4284 
L 2763 4284 
L 2763 -691 
L 2263 -691 
L 2263 -203 
L 856 -203 
L 856 -734 
L 356 -734 
L 356 4284 
z
M 2856 3003 
Q 3444 3934 3850 5322 
L 4375 5191 
Q 4216 4719 4050 4303 
L 6063 4303 
Q 5988 1091 5938 259 
Q 5894 -722 4906 -722 
Q 4338 -722 3750 -684 
Q 3713 -372 3650 -128 
L 3669 -128 
Q 4294 -216 4813 -216 
Q 5381 -216 5425 384 
Q 5494 1316 5525 3834 
L 3850 3834 
Q 3578 3231 3288 2772 
Q 3119 2891 2856 3003 
z
M 856 266 
L 2263 266 
L 2263 1847 
L 856 1847 
L 856 266 
z
M 2263 3816 
L 856 3816 
L 856 2297 
L 2263 2297 
L 2263 3816 
z
M 3406 2578 
L 3788 2859 
Q 4481 2041 4894 1441 
L 4431 1116 
Q 3988 1841 3406 2578 
z
" transform="scale(0.015625)"/>
      <path id="MicrosoftYaHei-538b" d="M 1363 3 
L 3538 3 
L 3538 2216 
L 1819 2216 
L 1819 2684 
L 3538 2684 
L 3538 4078 
L 4063 4078 
L 4063 2684 
L 5994 2684 
L 5994 2216 
L 4063 2216 
L 4063 3 
L 6250 3 
L 6250 -459 
L 1363 -459 
L 1363 3 
z
M 1363 2772 
Q 1363 1378 1188 672 
Q 1006 -59 488 -803 
Q 338 -622 100 -384 
Q 563 303 694 884 
Q 838 1459 838 2653 
L 838 4866 
L 6219 4866 
L 6219 4391 
L 1363 4391 
L 1363 2772 
z
M 4588 1516 
L 4938 1803 
Q 5413 1316 5881 791 
L 5469 459 
Q 4875 1191 4588 1516 
z
" transform="scale(0.015625)"/>
      <path id="MicrosoftYaHei-7f29" d="M 3388 3453 
L 6263 3453 
L 6263 3041 
L 4956 3041 
Q 4875 2713 4797 2422 
L 5888 2422 
L 5888 -797 
L 5438 -797 
L 5438 -491 
L 3994 -491 
L 3994 -797 
L 3544 -797 
L 3544 2422 
L 4325 2422 
Q 4397 2719 4456 3041 
L 3388 3041 
L 3388 3453 
z
M 831 1641 
Q 1375 1709 1788 1791 
Q 1763 1566 1750 1366 
Q 863 1222 288 1103 
L 213 1553 
Q 566 1916 1072 2828 
Q 541 2791 200 2759 
L 88 3141 
Q 625 3947 1144 5291 
L 1613 5128 
Q 1088 4009 600 3191 
Q 819 3191 1272 3200 
Q 1444 3525 1631 3909 
L 2069 3709 
Q 1188 2178 831 1641 
z
M 2194 4503 
L 4078 4503 
Q 3919 4816 3688 5159 
L 4100 5359 
Q 4406 4966 4569 4666 
L 4247 4503 
L 6138 4503 
L 6138 3591 
L 5663 3591 
L 5663 4078 
L 2669 4078 
L 2669 3503 
L 2194 3503 
L 2194 4503 
z
M 1863 1753 
Q 2481 2641 2931 3797 
L 3369 3653 
Q 3144 3113 2900 2628 
L 2900 -809 
L 2463 -809 
L 2463 1838 
Q 2288 1547 2106 1284 
Q 2013 1522 1863 1753 
z
M 3994 -84 
L 5438 -84 
L 5438 766 
L 3994 766 
L 3994 -84 
z
M 5438 2016 
L 3994 2016 
L 3994 1166 
L 5438 1166 
L 5438 2016 
z
M 106 191 
Q 1181 366 2056 553 
Q 2019 284 2013 159 
Q 1463 28 219 -284 
L 106 191 
z
" transform="scale(0.015625)"/>
      <path id="MicrosoftYaHei-7a0b" d="M 2750 5028 
L 5850 5028 
L 5850 2884 
L 5375 2884 
L 5375 3141 
L 3225 3141 
L 3225 2884 
L 2750 2884 
L 2750 5028 
z
M 44 903 
Q 663 1806 994 3041 
L 119 3041 
L 119 3453 
L 1094 3453 
L 1094 4431 
Q 700 4375 288 4328 
Q 238 4541 156 4759 
Q 1219 4847 2300 5097 
L 2438 4659 
Q 2003 4572 1544 4497 
L 1544 3453 
L 2413 3453 
L 2413 3041 
L 1544 3041 
L 1544 2216 
L 1788 2428 
Q 2038 2172 2519 1609 
L 2144 1303 
Q 1781 1766 1544 2050 
L 1544 -841 
L 1094 -841 
L 1094 2153 
Q 763 1078 256 359 
Q 156 628 44 903 
z
M 2250 -84 
L 4038 -84 
L 4038 841 
L 2619 841 
L 2619 1259 
L 4038 1259 
L 4038 2109 
L 2469 2109 
L 2469 2528 
L 6113 2528 
L 6113 2109 
L 4538 2109 
L 4538 1259 
L 5956 1259 
L 5956 841 
L 4538 841 
L 4538 -84 
L 6325 -84 
L 6325 -503 
L 2250 -503 
L 2250 -84 
z
M 5375 4603 
L 3225 4603 
L 3225 3566 
L 5375 3566 
L 5375 4603 
z
" transform="scale(0.015625)"/>
      <path id="MicrosoftYaHei-5ea6" d="M 1550 1216 
L 1550 1628 
L 5469 1628 
L 5469 1222 
Q 4903 613 4147 163 
Q 5050 -200 6263 -309 
L 6019 -797 
Q 4625 -603 3644 -109 
Q 2600 -619 1250 -866 
Q 1150 -666 994 -416 
Q 2231 -222 3166 166 
Q 2497 600 2066 1216 
L 1550 1216 
z
M 1363 3541 
L 2294 3541 
L 2294 4066 
L 2769 4066 
L 2769 3541 
L 4538 3541 
L 4538 4072 
L 5013 4072 
L 5013 3541 
L 6150 3541 
L 6150 3128 
L 5013 3128 
L 5013 1928 
L 4538 1928 
L 4538 2147 
L 2769 2147 
L 2769 1922 
L 2294 1922 
L 2294 3128 
L 1363 3128 
L 1363 3541 
z
M 3025 5172 
L 3481 5391 
Q 3694 5056 3909 4634 
L 6213 4634 
L 6213 4197 
L 1225 4197 
L 1225 2316 
Q 1225 178 394 -872 
Q 238 -666 38 -447 
Q 725 397 738 2347 
L 738 4634 
L 3331 4634 
Q 3188 4909 3025 5172 
z
M 2769 2547 
L 4538 2547 
L 4538 3128 
L 2769 3128 
L 2769 2547 
z
M 4819 1216 
L 2588 1216 
Q 3031 728 3656 391 
Q 4334 741 4819 1216 
z
" transform="scale(0.015625)"/>
      <path id="MicrosoftYaHei-b7" d="M 372 2113 
Q 372 2278 490 2395 
Q 609 2513 775 2513 
Q 941 2513 1061 2397 
Q 1181 2281 1181 2113 
Q 1181 1950 1064 1831 
Q 947 1713 772 1713 
Q 600 1713 486 1831 
Q 372 1950 372 2113 
z
" transform="scale(0.015625)"/>
      <path id="MicrosoftYaHei-4e8b" d="M 531 734 
L 2975 734 
L 2975 1203 
L 144 1203 
L 144 1591 
L 2975 1591 
L 2975 2053 
L 550 2053 
L 550 2428 
L 2975 2428 
L 2975 2853 
L 1388 2853 
L 1388 2691 
L 950 2691 
L 950 4034 
L 2975 4034 
L 2975 4447 
L 163 4447 
L 163 4834 
L 2975 4834 
L 2975 5322 
L 3438 5322 
L 3438 4834 
L 6244 4834 
L 6244 4447 
L 3438 4447 
L 3438 4034 
L 5463 4034 
L 5463 2691 
L 5025 2691 
L 5025 2853 
L 3438 2853 
L 3438 2428 
L 5600 2428 
L 5600 1591 
L 6294 1591 
L 6294 1203 
L 5600 1203 
L 5600 59 
L 5150 59 
L 5150 359 
L 3438 359 
L 3438 -9 
Q 3438 -759 2713 -766 
Q 2369 -766 1813 -753 
Q 1788 -541 1738 -234 
Q 2225 -297 2606 -297 
Q 2975 -297 2975 78 
L 2975 359 
L 531 359 
L 531 734 
z
M 3438 734 
L 5150 734 
L 5150 1203 
L 3438 1203 
L 3438 734 
z
M 5150 2053 
L 3438 2053 
L 3438 1591 
L 5150 1591 
L 5150 2053 
z
M 5025 3684 
L 3438 3684 
L 3438 3203 
L 5025 3203 
L 5025 3684 
z
M 1388 3203 
L 2975 3203 
L 2975 3684 
L 1388 3684 
L 1388 3203 
z
" transform="scale(0.015625)"/>
      <path id="MicrosoftYaHei-540e" d="M 1888 1984 
L 5688 1984 
L 5688 -828 
L 5188 -828 
L 5188 -403 
L 2388 -403 
L 2388 -828 
L 1888 -828 
L 1888 1984 
z
M 1313 2991 
Q 1313 1272 1138 672 
Q 963 -16 394 -847 
Q 250 -634 50 -409 
Q 494 222 650 859 
Q 806 1472 806 2659 
L 806 4766 
Q 3544 4853 5631 5141 
L 5931 4622 
Q 3344 4359 1313 4284 
L 1313 3459 
L 6263 3459 
L 6263 2991 
L 1313 2991 
z
M 5188 1528 
L 2388 1528 
L 2388 41 
L 5188 41 
L 5188 1528 
z
" transform="scale(0.015625)"/>
      <path id="MicrosoftYaHei-8bca" d="M 2069 997 
Q 2094 678 2138 447 
Q 1569 16 1238 -259 
Q 1106 -378 956 -547 
L 600 -153 
Q 794 53 794 422 
L 794 2753 
L 88 2753 
L 88 3216 
L 1281 3216 
L 1281 353 
Q 1656 653 2069 997 
z
M 931 5172 
Q 1419 4691 1919 4134 
L 1481 3766 
Q 969 4428 556 4853 
L 931 5172 
z
M 4325 5278 
L 4238 5122 
Q 4894 3872 6319 3222 
Q 6113 2953 5981 2766 
Q 4569 3591 3963 4691 
Q 3400 3666 1925 2734 
Q 1731 2991 1575 3172 
Q 3144 3966 3750 5278 
L 4325 5278 
z
M 1963 -391 
Q 4413 328 5619 1622 
L 5988 1284 
Q 4719 -78 2219 -872 
Q 2094 -628 1963 -391 
z
M 2163 2253 
Q 3494 2803 4163 3597 
L 4556 3303 
Q 3794 2441 2438 1822 
Q 2294 2053 2163 2253 
z
M 2331 984 
Q 3969 1653 4931 2616 
L 5288 2284 
Q 4275 1241 2594 541 
Q 2500 709 2331 984 
z
" transform="scale(0.015625)"/>
      <path id="MicrosoftYaHei-65ad" d="M 3713 4822 
Q 5025 4872 6138 5091 
L 6306 4628 
Q 5206 4497 4169 4409 
L 4169 3003 
L 6319 3003 
L 6319 2572 
L 5531 2572 
L 5531 -791 
L 5075 -791 
L 5075 2572 
L 4169 2572 
L 4169 1978 
Q 4169 153 3306 -897 
Q 3156 -716 2950 -509 
Q 3713 372 3713 1997 
L 3713 4822 
z
M 831 1034 
Q 1472 1750 1841 2678 
L 950 2678 
L 950 3097 
L 2019 3097 
L 2019 5216 
L 2456 5216 
L 2456 3097 
L 3406 3097 
L 3406 2678 
L 2456 2678 
L 2456 2141 
L 2644 2297 
Q 3019 1916 3450 1416 
L 3106 1116 
Q 2806 1506 2456 1903 
L 2456 203 
L 2019 203 
L 2019 2191 
Q 1675 1319 1025 547 
Q 944 803 831 1034 
z
M 375 5072 
L 819 5072 
L 819 66 
L 2994 66 
L 2994 -353 
L 375 -353 
L 375 5072 
z
M 2550 3647 
Q 2894 4209 3144 4816 
L 3569 4616 
Q 3300 4097 2925 3441 
L 2550 3647 
z
M 931 4634 
L 1294 4803 
Q 1569 4278 1850 3666 
L 1444 3466 
Q 1144 4197 931 4634 
z
" transform="scale(0.015625)"/>
     </defs>
     <use xlink:href="#MicrosoftYaHei-5b63"/>
     <use xlink:href="#MicrosoftYaHei-8282" transform="translate(100 0)"/>
     <use xlink:href="#MicrosoftYaHei-5dee" transform="translate(200 0)"/>
     <use xlink:href="#MicrosoftYaHei-5206" transform="translate(300 0)"/>
     <use xlink:href="#MicrosoftYaHei-5bf9" transform="translate(400 0)"/>
     <use xlink:href="#MicrosoftYaHei-6ce2" transform="translate(500 0)"/>
     <use xlink:href="#MicrosoftYaHei-52a8" transform="translate(600 0)"/>
     <use xlink:href="#MicrosoftYaHei-7684" transform="translate(700 0)"/>
     <use xlink:href="#MicrosoftYaHei-538b" transform="translate(800 0)"/>
     <use xlink:href="#MicrosoftYaHei-7f29" transform="translate(900 0)"/>
     <use xlink:href="#MicrosoftYaHei-7a0b" transform="translate(1000 0)"/>
     <use xlink:href="#MicrosoftYaHei-5ea6" transform="translate(1100 0)"/>
     <use xlink:href="#MicrosoftYaHei-20" transform="translate(1200 0)"/>
     <use xlink:href="#MicrosoftYaHei-b7" transform="translate(1229.589844 0)"/>
     <use xlink:href="#MicrosoftYaHei-20" transform="translate(1253.662109 0)"/>
     <use xlink:href="#MicrosoftYaHei-4e8b" transform="translate(1283.251953 0)"/>
     <use xlink:href="#MicrosoftYaHei-540e" transform="translate(1383.251953 0)"/>
     <use xlink:href="#MicrosoftYaHei-8bca" transform="translate(1483.251953 0)"/>
     <use xlink:href="#MicrosoftYaHei-65ad" transform="translate(1583.251953 0)"/>
    </g>
   </g>
   <g id="legend_1">
    <g id="patch_11">
     <path d="M 507.422104 156.569062 
L 525.422104 156.569062 
L 525.422104 150.269062 
L 507.422104 150.269062 
z
" style="fill: #0072b2"/>
    </g>
    <g id="text_18">
     <!-- 1日差分 -->
     <g transform="translate(532.622104 156.569062) scale(0.09 -0.09)">
      <defs>
       <path id="MicrosoftYaHei-65e5" d="M 975 4909 
L 5431 4909 
L 5431 -766 
L 4900 -766 
L 4900 -322 
L 1506 -322 
L 1506 -766 
L 975 -766 
L 975 4909 
z
M 1506 2103 
L 1506 134 
L 4900 134 
L 4900 2103 
L 1506 2103 
z
M 1506 4441 
L 1506 2572 
L 4900 2572 
L 4900 4441 
L 1506 4441 
z
" transform="scale(0.015625)"/>
      </defs>
      <use xlink:href="#MicrosoftYaHei-31"/>
      <use xlink:href="#MicrosoftYaHei-65e5" transform="translate(58.642578 0)"/>
      <use xlink:href="#MicrosoftYaHei-5dee" transform="translate(158.642578 0)"/>
      <use xlink:href="#MicrosoftYaHei-5206" transform="translate(258.642578 0)"/>
     </g>
    </g>
    <g id="patch_12">
     <path d="M 507.422104 170.500781 
L 525.422104 170.500781 
L 525.422104 164.200781 
L 507.422104 164.200781 
z
" style="fill: #009e88"/>
    </g>
    <g id="text_19">
     <!-- 7日差分 -->
     <g transform="translate(532.622104 170.500781) scale(0.09 -0.09)">
      <defs>
       <path id="MicrosoftYaHei-37" d="M 3422 4463 
Q 2659 3131 2223 1998 
Q 1788 866 1684 0 
L 1047 0 
Q 1163 853 1594 1947 
Q 2025 3041 2747 4300 
L 347 4300 
L 347 4841 
L 3422 4841 
L 3422 4463 
z
" transform="scale(0.015625)"/>
      </defs>
      <use xlink:href="#MicrosoftYaHei-37"/>
      <use xlink:href="#MicrosoftYaHei-65e5" transform="translate(58.642578 0)"/>
      <use xlink:href="#MicrosoftYaHei-5dee" transform="translate(158.642578 0)"/>
      <use xlink:href="#MicrosoftYaHei-5206" transform="translate(258.642578 0)"/>
     </g>
    </g>
   </g>
  </g>
 </g>
 <defs>
  <clipPath id="pee57ea4bdb">
   <rect x="38.615865" y="18.59274" width="534.383895" height="284.927333"/>
  </clipPath>
 </defs>
</svg>
